<svg viewBox="0 0 1280 720" xmlns="http://www.w3.org/2000/svg"><defs><linearGradient id="bg" x1="0%" y1="0%" x2="100%" y2="100%"><stop offset="0%" style="stop-color:#0f1419"/><stop offset="100%" style="stop-color:#1a1f2e"/></linearGradient></defs><rect width="1280" height="720" fill="url(#bg)"/><rect width="1280" height="90" fill="#0d3a52"/><text x="40" y="55" font-family="monospace" font-size="28" font-weight="bold" fill="#00d4ff">ORION FORECAST</text><text x="40" y="80" font-family="monospace" font-size="13" fill="#66bb6a">ML-Powered Demand Prediction</text><circle cx="200" cy="200" r="10" fill="#00d4ff" opacity="0.3" stroke="#00d4ff" stroke-width="2"/><circle cx="200" cy="280" r="10" fill="#00d4ff" opacity="0.5" stroke="#00d4ff" stroke-width="2"/><circle cx="200" cy="360" r="10" fill="#00d4ff" opacity="0.4" stroke="#00d4ff" stroke-width="2"/><circle cx="200" cy="440" r="10" fill="#00d4ff" opacity="0.6" stroke="#00d4ff" stroke-width="2"/><circle cx="320" cy="180" r="12" fill="#66bb6a" opacity="0.6" stroke="#66bb6a" stroke-width="2"/><circle cx="320" cy="260" r="12" fill="#66bb6a" opacity="0.8" stroke="#66bb6a" stroke-width="2"/><circle cx="320" cy="340" r="12" fill="#66bb6a" opacity="0.7" stroke="#66bb6a" stroke-width="2"/><circle cx="320" cy="420" r="12" fill="#66bb6a" opacity="0.9" stroke="#66bb6a" stroke-width="2"/><circle cx="320" cy="500" r="12" fill="#66bb6a" opacity="0.5" stroke="#66bb6a" stroke-width="2"/><circle cx="440" cy="220" r="12" fill="#ffa726" opacity="0.7" stroke="#ffa726" stroke-width="2"/><circle cx="440" cy="320" r="12" fill="#ffa726" opacity="0.9" stroke="#ffa726" stroke-width="2"/><circle cx="440" cy="420" r="12" fill="#ffa726" opacity="0.6" stroke="#ffa726" stroke-width="2"/><circle cx="560" cy="320" r="14" fill="#ef5350" opacity="0.8" stroke="#ef5350" stroke-width="3"/><line x1="210" y1="200" x2="308" y2="180" stroke="#00d4ff" stroke-width="1" opacity="0.3"/><line x1="210" y1="280" x2="308" y2="260" stroke="#00d4ff" stroke-width="2" opacity="0.4"/><line x1="210" y1="360" x2="308" y2="340" stroke="#00d4ff" stroke-width="1.5" opacity="0.3"/><line x1="210" y1="440" x2="308" y2="420" stroke="#00d4ff" stroke-width="2.5" opacity="0.5"/><line x1="330" y1="260" x2="428" y2="220" stroke="#66bb6a" stroke-width="2" opacity="0.4"/><line x1="330" y1="340" x2="428" y2="320" stroke="#66bb6a" stroke-width="3" opacity="0.6"/><line x1="330" y1="420" x2="428" y2="420" stroke="#66bb6a" stroke-width="2.5" opacity="0.5"/><line x1="452" y1="320" x2="548" y2="320" stroke="#ffa726" stroke-width="3" opacity="0.7"/><rect x="640" y="140" width="600" height="280" fill="#0d1117" stroke="#2d3748" stroke-width="2" rx="8"/><text x="660" y="170" font-family="monospace" font-size="15" font-weight="bold" fill="#e0e0e0">30-Day Demand Forecast</text><polyline points="680,340 720,310 760,330 800,290 840,280 880,310 920,300 960,340 1000,320 1040,350 1080,310" fill="none" stroke="#66bb6a" stroke-width="3"/><polyline points="1000,320 1040,290 1080,280 1120,295 1160,260 1200,250 1220,270" fill="none" stroke="#00d4ff" stroke-width="3" stroke-dasharray="6,3"/><text x="680" y="320" font-family="monospace" font-size="10" fill="#7e8896">10K</text><text x="680" y="360" font-family="monospace" font-size="10" fill="#7e8896">0</text><text x="1200" y="370" font-family="monospace" font-size="10" fill="#7e8896">Day 30</text><rect x="640" y="450" width="290" height="240" fill="#0d1117" stroke="#2d3748" stroke-width="2" rx="8"/><text x="660" y="480" font-family="monospace" font-size="13" font-weight="bold" fill="#e0e0e0">Model Stats</text><text x="660" y="510" font-family="monospace" font-size="11" fill="#7e8896">Accuracy:</text><text x="880" y="510" font-family="monospace" font-size="11" font-weight="bold" fill="#66bb6a">94.2%</text><text x="660" y="535" font-family="monospace" font-size="11" fill="#7e8896">Error Range:</text><text x="880" y="535" font-family="monospace" font-size="11" font-weight="bold" fill="#00d4ff">±3.8%</text><text x="660" y="560" font-family="monospace" font-size="11" fill="#7e8896">Products Tracked:</text><text x="880" y="560" font-family="monospace" font-size="11" font-weight="bold" fill="#00d4ff">12.8K</text><text x="660" y="585" font-family="monospace" font-size="11" fill="#7e8896">Update Frequency:</text><text x="880" y="585" font-family="monospace" font-size="11" font-weight="bold" fill="#66bb6a">Live</text><text x="660" y="615" font-family="monospace" font-size="10" fill="#7e8896">Next retraining:</text><text x="880" y="615" font-family="monospace" font-size="10" fill="#e0e0e0">In 6 days</text><rect x="970" y="450" width="270" height="240" fill="#0d1117" stroke="#2d3748" stroke-width="2" rx="8"/><text x="990" y="480" font-family="monospace" font-size="13" font-weight="bold" fill="#e0e0e0">Features</text><text x="990" y="510" font-family="monospace" font-size="10" fill="#00d4ff">• Historical Sales</text><text x="990" y="530" font-family="monospace" font-size="10" fill="#00d4ff">• Seasonality</text><text x="990" y="550" font-family="monospace" font-size="10" fill="#00d4ff">• Price Elasticity</text><text x="990" y="570" font-family="monospace" font-size="10" fill="#00d4ff">• Marketing Spend</text><text x="990" y="590" font-family="monospace" font-size="10" fill="#00d4ff">• Competitor Data</text><text x="990" y="610" font-family="monospace" font-size="10" fill="#00d4ff">• Economic Index</text><text x="990" y="630" font-family="monospace" font-size="10" fill="#00d4ff">• Weather Patterns</text></svg>